/* XPM */
static const char * icon_xpm[] = {
"32 32 65 1",
" 	c None",
".	c #FFAE00",
"+	c #FF8B02",
"@	c #FF7A01",
"#	c #FF3A00",
"$	c #CF0101",
"%	c #A30105",
"&	c #970302",
"*	c #BC0004",
"=	c #FD0700",
"-	c #DB0003",
";	c #620104",
">	c #350505",
",	c #2D0605",
"'	c #441010",
")	c #590403",
"!	c #EA0000",
"~	c #860404",
"{	c #3E0202",
"]	c #250606",
"^	c #480404",
"/	c #720406",
"(	c #500204",
"_	c #1C0504",
":	c #AE0103",
"<	c #2F1211",
"[	c #130405",
"}	c #090301",
"|	c #6A0D0D",
"1	c #650300",
"2	c #5E1615",
"3	c #891617",
"4	c #7A5F5F",
"5	c #D3CBCA",
"6	c #FAF4F2",
"7	c #EBE5E4",
"8	c #D0A7A7",
"9	c #BB3634",
"0	c #FEFFFC",
"a	c #613E3E",
"b	c #E74646",
"c	c #835E5E",
"d	c #511E1E",
"e	c #978A89",
"f	c #863233",
"g	c #7C3B3B",
"h	c #B1807F",
"i	c #BAAAAC",
"j	c #ECCCCB",
"k	c #945556",
"l	c #4F2727",
"m	c #B15455",
"n	c #FF5F47",
"o	c #C96460",
"p	c #594F4D",
"q	c #736968",
"r	c #FF7A3F",
"s	c #D79899",
"t	c #FF6101",
"u	c #FFE0C5",
"v	c #352B2C",
"w	c #FFAD56",
"x	c #FFCFAD",
"y	c #FFD6D1",
"z	c #B10600",
".+@@@@@+...+@@@@@@++@@@@@@@@@@@@",
"#$%&&%%*=#=-%&&%%*$-*%&&&&&&&&&&",
"$;>,>'')%!-~{,]],^/~(,]]]]____]]",
":),,<<<'/--~,[}}[>//^][[[}}}}}}[",
"*;>,]]]<|$!&{[}}},1~),_[[}}}}}}}",
"$/^>][[<)$=%{[}}}];~|>]_[}}}}}}}",
"$/^'][[<|-=&{[}}}_)&~(,_[[}}}}}}",
"$/^>,]<'&!!~>_[}}_^~%/']__[[[}}}",
"*|>,<,'|*=-/,_[[[[,1%%|>,]______",
"%(,]>'23:$:;,____[_{~*&)^{>,,,>>",
"~^<4566789&/7000065a/$b0c^^{{c0c",
"3de0666608~/70666600f!b0c>{{{c0c",
"fc074d^ghh||70)^{di0j!b04],>(k0k",
"g564ldd|3|2'70{>>>,76!b04]>^/m0m",
"g65ald23~32'70]]],'66!b0c{)/~m0k",
"a0ild2~%%3|(70,<<ai08!b0k////k04",
"l0i'^/*000h^70000006f$n0o/;(>p0p",
"275l^~$670q_707777il^*r0o(,_[p0p",
"(i0e)%-*g0q}70]>{{,,^:r0s'_}}e0p",
"(a6089*9c0q}70[],]__{:tu0hlvq05v",
"(,q7000006q}70[_]_[[,&#w600007q}",
"(,_asjjj8c,[57[_]_}}_)$#wxyj8k][",
"^,]>/**~)^{,[[_]]_}}}])%=t@t#$/(",
"^>,{1:*&1^^{,]]]_[}}}[_>/$=t@t=$",
"){>^/&%~/(^^{>,][}}}}}[[]^~*=t#=",
":)>^/&&~/(^((>][}}}}}}}[[_]^&!=!",
"=/]>/%%~/;);(>_}}}}}}}}[[__,^~**",
"#~]])%%~///;^][}}}}}}}[__]]]](&z",
"t&]])&%&~~/)>_[[}}}}[[_,,>,]](&*",
"t%>,)~%%%~1){]___[[__,>{{{{>>)%*",
"@$~/~%:z:~1/1)(((^^^);;;))));~:*",
"+=!!-$*:%~~&%::::zz**:%~~~~&%:*:"};
